<svg width="20" height="20" viewBox="0 0 20 20" fill="none" xmlns="http://www.w3.org/2000/svg">
<path d="M14.2084 16.9C13.4084 17.6917 12.3667 18.3333 11.1167 18.3333C9.90836 18.3333 9.15836 17.6167 8.02503 17.6167C6.86669 17.6167 5.95836 18.3333 4.92503 18.3333C3.67503 18.3333 2.55836 17.5333 1.75836 16.5167C0.125028 14.4167 -0.174972 11.0833 1.25003 8.9C2.1917 7.45 3.75003 6.55 5.4417 6.55C6.55836 6.55 7.42503 7.16667 8.19169 7.16667C8.92503 7.16667 9.9417 6.55 11.075 6.55C12.15 6.55 13.425 7.11667 14.1834 8.25833C11.625 9.49167 12.0417 12.9833 14.6917 14C14.1417 15.2833 13.325 16.5833 12.5334 17.7417L14.2084 16.9ZM10.025 6.04167C10.0084 4.18333 11.5584 2.59167 13.4167 2.5C13.5584 4.49167 11.6667 6.18333 10.025 6.04167Z" fill="black"/>
</svg>
